<?xml version="1.0" encoding="UTF-8"?>
<svg width="8px" height="16px" viewBox="0 0 8 16" version="1.1" xmlns="http://www.w3.org/2000/svg" xmlns:xlink="http://www.w3.org/1999/xlink">
    <title>fb-icon</title>
    <g id="Assets" stroke="none" stroke-width="1" fill="none" fill-rule="evenodd" opacity="0.5">
        <path d="M5.51171875,15.7382812 L5.51171875,9.76171875 L7.76171875,9.76171875 L7.76171875,6.73828125 L5.51171875,6.73828125 L5.51171875,4.875 C5.51171875,4.59375 5.57617188,4.3359375 5.70507812,4.1015625 C5.83398438,3.8671875 6.015625,3.75 6.25,3.75 L6.25,3.75 L7.76171875,3.75 L7.76171875,0.76171875 L5.51171875,0.76171875 C4.66796875,0.76171875 3.953125,1.0546875 3.3671875,1.640625 C2.78125,2.2265625 2.48828125,2.9296875 2.48828125,3.75 L2.48828125,3.75 L2.48828125,6.73828125 L0.23828125,6.73828125 L0.23828125,9.76171875 L2.48828125,9.76171875 L2.48828125,15.7382812 L5.51171875,15.7382812 Z" id="fb-icon" fill="#FFFFFF" fill-rule="nonzero"></path>
    </g>
</svg>