<?xml version="1.0" encoding="UTF-8"?>
<svg width="299px" height="66px" viewBox="0 0 299 66" version="1.1" xmlns="http://www.w3.org/2000/svg" xmlns:xlink="http://www.w3.org/1999/xlink">
    <title>Logotype</title>
    <g id="Assets" stroke="none" stroke-width="1" fill="none" fill-rule="evenodd">
        <g id="Logotype" fill="#FFFFFF">
            <path d="M21.0754346,25.4445161 C19.7642971,20.3521198 9.83014348,20.6268894 10.9217417,29.2973963 C11.7938006,34.3714747 24.4965888,37.6259677 27.1920436,44.3303456 C28.9361615,48.9525806 27.6128273,54.8814977 24.1794765,58.8809217 C16.946876,67.2278111 3.02442498,67.2094931 0.402149933,56.023318 C-1.20170667,50.4546544 6.38459603,47.7191705 7.40301448,52.2559217 C8.78733178,58.2092627 15.0563986,58.8503917 18.5629292,54.1976267 C20.0265246,52.2192857 20.325342,49.6547696 19.7399038,47.5115668 C18.0628675,41.5643318 3.90868052,41.448318 3.2500626,29.7309217 C2.37190538,12.9944009 23.7952827,9.72158986 27.8750548,22.3487788 C29.5520912,27.5694009 22.0938531,29.8347235 21.0754346,25.4445161" id="Fill-1"></path>
            <path d="M55.0960993,58.230023 C51.7969114,51.7637788 48.4916252,45.2303687 45.1924373,38.6114747 C44.5338194,37.084977 43.2897633,38.0314055 43.3629431,38.8557143 C43.3507464,45.8104378 43.3446481,51.2752995 43.3324515,58.230023 C43.3934346,62.7789862 36.2340139,63.548341 36.246195,58.7856682 C36.2523088,51.2691935 36.2645055,43.7527189 36.2767021,36.2362442 C36.2888987,30.0081336 36.294997,23.780023 36.3071937,17.5519124 C36.313292,13.5463825 41.6493168,12.4839401 43.2531734,16.1963825 C46.021808,22.6198848 49.9552206,31.6140092 52.6445771,37.8726498 C53.3763748,39.045 54.5472511,38.1718433 54.4740713,37.6406221 C54.4862679,31.5895853 54.4984645,23.2549078 54.5106612,17.1305991 C54.5167595,12.551106 61.6883768,12.5022581 61.6090987,16.8985714 C61.5969021,22.8335945 61.5847055,28.7625115 61.5725089,34.6975346 C61.5603122,42.0735714 61.5481156,49.4435023 61.535919,56.8195392 C61.5969021,61.0082488 56.6999559,61.5333641 55.0960993,58.230023" id="Fill-4"></path>
            <path d="M86.5365673,35.5761866 C86.530469,39.6488825 86.5243707,43.7154724 86.5182724,47.7881682 C86.5060758,53.6071774 76.4804474,54.4192742 76.7121834,47.5927765 C76.7182817,43.7215783 76.72438,39.9236521 76.7304783,36.0585599 C76.7365766,32.1873618 76.7487733,28.3894355 76.7548716,24.5792972 C76.5475289,17.7589055 86.5670589,17.8504954 86.5548734,23.6878226 C86.548764,27.6506106 86.5426656,31.6133986 86.5365673,35.5761866 M69.7296138,24.4510714 C69.6503357,28.4810253 69.6442374,32.4438134 69.6320407,36.4737673 C69.6259424,40.4365553 69.6198441,44.3321774 69.6869256,48.2216935 C69.8759733,63.3889747 93.6654965,61.5693894 93.7630695,46.9089055 C93.7691678,43.0987673 93.7752661,39.3496889 93.7813644,35.5456567 C93.7874628,31.7355184 93.7935611,27.9253802 93.7996594,24.1152419 C93.7508729,9.38148618 69.9735463,9.24104839 69.7296138,24.4510714" id="Fill-6"></path>
            <path d="M153.131986,32.9023733 C153.131986,27.2176959 153.131986,21.5330184 153.131986,15.848341 C153.131986,12.1175806 158.40093,11.2993779 160.084065,14.7187327 C162.547783,19.8905069 165.011502,25.0683871 167.481319,30.2584793 C169.018095,33.3114747 170.195069,33.5740323 171.731844,30.1668894 C174.116285,25.123341 176.500726,20.0675806 178.891265,14.9996083 C180.714661,11.2627419 185.471346,12.4350922 185.916523,15.3781797 C185.916523,15.5674654 185.916523,15.7567512 185.916523,16.0132028 C185.922621,21.7528341 185.92872,27.4924654 185.934818,33.2320968 C185.940916,40.1807143 185.953113,47.1293318 185.959215,54.0779493 C185.965309,58.4742627 178.860774,58.2055991 178.927855,54.0229954 C178.921757,48.1123963 178.915658,42.2017972 178.90956,36.2911982 C179.049821,34.1296774 177.220327,34.5509908 176.854428,35.4974194 C175.470111,38.397765 174.445594,40.5409677 173.055179,43.3680415 C171.664763,46.329447 167.566696,46.3966129 166.097002,43.4107834 C164.852946,40.7791014 163.60889,38.1535253 162.358736,35.5279493 C161.553758,33.8854378 160.163343,35.076106 160.236522,35.7660829 C160.236522,42.2811751 160.242621,47.2148157 160.242621,53.7238018 C160.242621,57.8941935 153.131986,57.9125115 153.131986,53.5589401 C153.131986,46.6713825 153.131986,39.7899309 153.131986,32.9023733" id="Fill-8"></path>
            <path d="M193.865675,33.3218548 C193.859577,27.5577995 193.84738,21.7937442 193.841278,16.0296889 C193.835184,11.6150576 200.933621,11.7982373 200.93972,16.0541129 C200.951916,21.7815323 200.958015,27.5089516 200.964113,33.236371 C200.976309,40.3803802 200.988506,47.5243894 201.000707,54.6683986 C201.006801,58.9792281 193.902265,58.7410945 193.896167,54.3325691 C193.88397,47.3289977 193.877872,40.3254263 193.865675,33.3218548" id="Fill-10"></path>
            <path d="M228.380913,57.1370507 C225.051234,50.328871 221.721554,43.6061751 218.397973,36.9567512 C217.733257,35.4302535 216.489201,36.2301382 216.568479,37.0178111 C216.580676,43.667235 216.586774,48.8817512 216.59897,55.5311751 C216.678249,59.8969585 209.506631,59.567235 209.494435,55.1037558 C209.488336,48.0452304 209.47614,40.9805991 209.463943,33.9220737 C209.451746,28.0725346 209.445648,22.2168894 209.433446,16.3673502 C209.427353,12.6182719 214.763378,11.7634332 216.385529,15.3720737 C219.172459,21.6001843 223.136363,30.5454608 225.856211,36.9201152 C226.594107,38.1291014 227.758885,37.3902765 227.685705,36.8590553 C227.673509,30.9301382 227.661312,22.7542166 227.649116,16.7520276 C227.643017,12.2763364 234.808536,12.4473041 234.747553,16.8375115 C234.753651,22.7542166 234.765848,28.6648157 234.778045,34.5754147 C234.790241,41.9331336 234.802438,49.2847465 234.820733,56.6363594 C234.900011,60.8250691 229.996966,60.6052535 228.380913,57.1370507" id="Fill-12"></path>
            <path d="M247.411312,13.5329493 C252.021638,13.6245392 256.631963,13.728341 261.242288,13.8382488 C262.309493,13.8626728 263.108373,14.2168203 263.620631,14.9006912 C264.132889,15.5723502 264.389019,16.3294931 264.389019,17.1660138 C264.389019,17.9903226 264.120693,18.7596774 263.590139,19.4557604 C263.053488,20.1518433 262.272904,20.4998848 261.248387,20.5120968 C258.687095,20.4266129 256.125803,20.347235 253.564511,20.2678571 C252.686354,20.2434332 251.887475,20.4571429 251.155677,20.9028802 C250.423879,21.3608295 250.05798,22.1057604 250.064079,23.1437788 C250.064079,25.6960829 250.070177,28.2483871 250.076275,30.8006912 C250.027489,31.6982719 250.222635,32.4554147 250.661714,33.0660138 C251.10689,33.6766129 251.783803,33.9819124 252.710747,33.9758065 C254.662208,34.0735023 256.613668,34.1711982 258.565129,34.275 C259.638432,34.3299539 260.443409,34.7085253 260.980061,35.4046083 C261.516713,36.0945853 261.785038,36.8578341 261.785038,37.6821429 C261.791137,38.5064516 261.522811,39.2635945 260.986159,39.9413594 C260.449508,40.6252304 259.668923,40.924424 258.650505,40.8633641 C256.625865,40.7351382 254.601224,40.6130184 252.576584,40.4970046 C251.893573,40.4603687 251.295938,40.6374424 250.789778,41.0404378 C250.27752,41.4373272 250.045784,42.1578341 250.09457,43.2019585 C250.192143,44.4720046 250.222635,45.7298387 250.173848,46.9632488 C250.13116,48.208871 250.106767,49.4789171 250.112865,50.7855991 C250.112865,51.6465438 250.308011,52.4891705 250.698303,53.3073733 C251.088596,54.125576 251.991146,54.5896313 253.405955,54.6995392 C256.040427,54.9071429 258.6688,55.1208525 261.303272,55.3467742 C262.370477,55.4322581 263.169356,55.8413594 263.681614,56.5496544 C264.193872,57.2579493 264.450002,58.0334101 264.450002,58.8638249 C264.450002,59.6942396 264.181676,60.4391705 263.645024,61.1047235 C263.114471,61.7702765 262.309493,62.06947 261.23619,62.0145161 C256.631963,61.5809908 252.027736,61.1779954 247.41741,60.793318 C246.392894,60.7139401 245.594015,60.5063364 245.002478,60.1949309 C244.423138,59.8774194 243.977961,59.4866359 243.685242,59.0164747 C243.392523,58.5463134 243.209574,58.0334101 243.136394,57.459447 C243.063214,56.8976959 243.026624,56.3237327 243.026624,55.7436636 C243.014428,48.9660138 243.002231,42.1822581 242.990034,35.4046083 C242.983936,32.3577189 242.977838,29.3169355 242.971739,26.2700461 C242.965641,23.2231567 242.983936,20.1823733 243.026624,17.1415899 C243.020526,15.6211982 243.435211,14.6198157 244.264582,14.1435484 C245.093953,13.6672811 246.142863,13.4596774 247.411312,13.5329493" id="Fill-14"></path>
            <path d="M283.19256,38.14803 C284.192684,38.2151959 285.186709,38.2823618 286.186832,38.3556336 C289.833624,38.6181912 291.7302,34.3501037 291.58384,29.9965323 C291.437481,25.7833986 289.388447,21.576371 285.296478,21.4176152 C284.540288,21.3870853 283.790195,21.3565553 283.034004,21.3321313 C281.350869,21.2649654 279.600653,22.4006797 279.527473,24.5927304 C279.533572,27.9449194 279.533572,31.2971083 279.53967,34.6431912 C279.53967,36.4139286 281.149625,38.14803 283.19256,38.14803 M272.459527,38.770841 C272.447331,32.0298272 272.441232,25.2888134 272.435123,18.5477995 C272.429036,15.9588594 274.984229,14.0721083 276.886903,14.3224539 C280.448319,14.4201498 284.003636,14.5178456 287.558953,14.6216475 C294.212214,14.7865092 298.157823,22.7365092 298.377362,30.6132373 C298.517623,36.1757949 297.352845,38.8929608 294.437851,43.0877765 C293.340155,44.748606 292.102197,46.9467627 293.925593,50.2317857 C295.437975,53.8098963 296.944258,57.4185369 298.450542,61.0577074 C300.560559,65.6433065 294.15123,67.951371 292.035116,63.2192281 C289.821427,58.3527535 287.607739,53.5534447 285.387953,48.8090899 C283.930456,45.6034447 279.551867,45.9087442 279.551867,49.6517166 C279.557965,53.2359332 279.557965,56.8262558 279.564063,60.4104724 C279.643341,65.0998733 272.563199,64.3732604 272.5571,59.5678456 C272.52051,52.6314401 272.490019,45.7011406 272.459527,38.770841" id="Fill-16"></path>
            <path d="M148.859508,1.51086406 C143.956463,5.36985023 140.943896,11.506371 139.004632,17.1971544 C137.162941,22.6070622 135.687149,28.5359793 134.138177,33.9519931 C132.955105,37.8476152 130.521877,36.9866705 129.936439,34.1229608 C129.131462,29.2686982 128.320386,24.4083295 127.515408,19.5479608 C126.85679,16.1713479 121.996434,16.3239977 121.331718,19.5296429 C120.740181,21.6423157 119.331471,32.016394 118.739934,34.0741129 C117.483682,38.000265 115.349272,36.8279147 114.471115,34.2756106 C112.611129,27.8765323 110.751143,21.4652419 108.897256,15.0356336 C107.793461,10.8652419 100.877973,12.3367857 102.048849,16.6598272 C105.567576,29.4640899 109.080205,42.1767627 112.60503,54.8405876 C113.044109,56.4953111 114.367443,57.221924 115.770055,57.2524539 C117.392207,57.3989977 119.307078,56.6418548 119.679075,54.6513018 C120.618215,50.1572926 121.557356,45.6632834 122.490398,41.1753802 C123.008754,39.0504954 124.996805,39.0260714 125.362704,41.1326382 C126.246959,45.5839055 127.125116,50.0351728 128.009372,54.4803341 C128.375271,56.1289516 129.844964,56.8677765 131.247577,56.9166244 C132.869728,57.0814862 134.565059,56.2877074 135.156596,54.3765323 C138.65093,42.628606 142.145264,30.9173157 145.633499,19.2182373 C146.920244,15.3775691 149.06685,10.4500346 152.32335,7.14669355 C156.201878,3.14726959 152.390431,-1.4322235 148.859508,1.51086406" id="Fill-18"></path>
        </g>
    </g>
</svg>