<?xml version="1.0" encoding="UTF-8"?>
<svg width="16px" height="13px" viewBox="0 0 16 13" version="1.1" xmlns="http://www.w3.org/2000/svg" xmlns:xlink="http://www.w3.org/1999/xlink">
    <title>twitter-icon</title>
    <g id="Assets" stroke="none" stroke-width="1" fill="none" fill-rule="evenodd" opacity="0.5">
        <path d="M5.08203125,13 C6.95703125,13 8.62109375,12.5195312 10.0742188,11.5585938 C11.4101562,10.7148438 12.453125,9.56640625 13.203125,8.11328125 C13.90625,6.73046875 14.2578125,5.3125 14.2578125,3.859375 L14.2226562,3.4375 C14.8554688,2.9921875 15.3945312,2.4296875 15.8398438,1.75 C15.2773438,2.0078125 14.6679688,2.18359375 14.0117188,2.27734375 C14.6914062,1.85546875 15.1601562,1.2578125 15.4179688,0.484375 C14.7851562,0.859375 14.1054688,1.1171875 13.3789062,1.2578125 C12.7460938,0.578125 11.9492188,0.23828125 10.9882812,0.23828125 C10.1210938,0.23828125 9.37109375,0.5546875 8.73828125,1.1875 C8.10546875,1.8203125 7.7890625,2.58203125 7.7890625,3.47265625 C7.7890625,3.70703125 7.82421875,3.953125 7.89453125,4.2109375 C6.58203125,4.140625 5.34570312,3.80664062 4.18554688,3.20898438 C3.02539062,2.61132812 2.046875,1.8203125 1.25,0.8359375 C0.96875,1.328125 0.828125,1.86132812 0.828125,2.43554688 C0.828125,3.00976562 0.95703125,3.53125 1.21484375,4 C1.47265625,4.46875 1.8125,4.84375 2.234375,5.125 C1.7421875,5.125 1.26171875,4.99609375 0.79296875,4.73828125 L0.79296875,4.7734375 C0.79296875,5.546875 1.0390625,6.2265625 1.53125,6.8125 C2.0234375,7.3984375 2.6328125,7.7734375 3.359375,7.9375 C3.1015625,8.0078125 2.8203125,8.04296875 2.515625,8.04296875 C2.328125,8.04296875 2.12890625,8.01953125 1.91796875,7.97265625 C2.12890625,8.62890625 2.50976562,9.16210938 3.06054688,9.57226562 C3.61132812,9.98242188 4.2265625,10.1992188 4.90625,10.2226562 C3.7578125,11.1367188 2.43359375,11.59375 0.93359375,11.59375 C0.67578125,11.59375 0.41796875,11.5820312 0.16015625,11.5585938 C1.66015625,12.5195312 3.30078125,13 5.08203125,13 Z" id="twitter-icon" fill="#FFFFFF" fill-rule="nonzero"></path>
    </g>
</svg>